<?xml version="1.0" encoding="UTF-8" standalone="no"?>
<svg width="324px" height="341px" viewBox="0 0 324 341" version="1.1" xmlns="http://www.w3.org/2000/svg" xmlns:xlink="http://www.w3.org/1999/xlink" xmlns:sketch="http://www.bohemiancoding.com/sketch/ns">
    <!-- Generator: Sketch 3.4 (15588) - http://www.bohemiancoding.com/sketch -->
    <title>bijela 2</title>
    <desc>Created with Sketch.</desc>
    <defs></defs>
    <g id="Page-1" stroke="none" stroke-width="1" fill="none" fill-rule="evenodd" sketch:type="MSPage">
        <g id="bijela-2" sketch:type="MSArtboardGroup">
            <g id="Group" sketch:type="MSLayerGroup" transform="translate(70.000000, 88.000000)">
                <rect id="Rectangle-106" stroke="#4A4A4A" stroke-width="10" fill="#4A4A4A" sketch:type="MSShapeGroup" x="0" y="0" width="172" height="137"></rect>
                <rect id="Rectangle-3" fill="#FFFFFF" sketch:type="MSShapeGroup" x="1" y="106" width="170" height="30"></rect>
                <rect id="Rectangle-1" fill="#FFFFFF" sketch:type="MSShapeGroup" x="1" y="1" width="170" height="30"></rect>
                <rect id="Rectangle-2" fill="#FFFFFF" sketch:type="MSShapeGroup" x="1" y="30" width="170" height="80"></rect>
                <path d="M76.1604206,70.7783923 L155.920163,70.5532881 C156.960665,70.5503515 159.190839,70.5532881 159.190839,70.5532881 L183.766296,107.018629 L148.808744,130.449884 C148.808744,130.449884 100.866349,130.626622 76.7199474,130.626621 C76.5334385,130.626621 76.1604206,130.626621 76.1604206,130.626621 L76.1604206,70.7783923 Z" id="Rectangle-114" opacity="0.501725746" fill="#D8D8D8" sketch:type="MSShapeGroup" transform="translate(129.963358, 100.589302) rotate(-326.000000) translate(-129.963358, -100.589302) "></path>
                <path d="M92.6554188,14.4469656 L163.887327,14.7629864 L166.204758,14.7732677 L176.77607,27.2696909 L164.027459,87.3099951 L92.6554188,14.4469656 Z" id="Rectangle-115" fill-opacity="0.5" fill="#D8D8D8" sketch:type="MSShapeGroup" transform="translate(134.715744, 50.878480) rotate(-12.000000) translate(-134.715744, -50.878480) "></path>
                <rect id="Rectangle-4" fill="#D0011B" sketch:type="MSShapeGroup" x="86" y="9" width="72" height="15"></rect>
                <circle id="Oval-32" fill="#4A4A4A" sketch:type="MSShapeGroup" cx="86" cy="71" r="30"></circle>
                <rect id="Rectangle-5" fill="#4A4A4A" sketch:type="MSShapeGroup" x="16" y="114" width="140" height="15"></rect>
                <rect id="Rectangle-6" stroke="#D0011B" stroke-width="7.5" fill="#D0011B" sketch:type="MSShapeGroup" x="26" y="121" width="120" height="60"></rect>
                <path d="M1.5,105.5 L170.5,105.5" id="Line" stroke="#4A4A4A" stroke-linecap="square" sketch:type="MSShapeGroup"></path>
                <path d="M1.5,31.5 L170.50296,31.5" id="Line" stroke="#4A4A4A" stroke-linecap="square" sketch:type="MSShapeGroup"></path>
            </g>
        </g>
    </g>
</svg>